<svg version="1.1" id="Henkel" xmlns:x="ns_extend;" xmlns:i="ns_ai;" xmlns:graph="ns_graphs;" xmlns="http://www.w3.org/2000/svg" xmlns:xlink="http://www.w3.org/1999/xlink" x="0px" y="0px" viewBox="0 0 76.3 42.5" style="enable-background:new 0 0 76.3 42.5;" xml:space="preserve">
 <style type="text/css">
  .st0{fill:#FFFFFF;}
 </style>
 <metadata>
  <sfw xmlns="ns_sfw;">
   <slices>
   </slices>
   <sliceSourceBounds bottomLeftOrigin="true" height="42.5" width="76.3" x="0" y="7.1">
   </sliceSourceBounds>
  </sfw>
 </metadata>
 <g>
  <path class="st0" d="M38.1,0c21.1,0,38.1,9.5,38.1,21.3S59.2,42.5,38.1,42.5C17.1,42.5,0,33,0,21.3S17.1,0,38.1,0z M38.1,1.9
		c-20,0-36.2,8.7-36.2,19.3c0,10.7,16.2,19.3,36.2,19.3c20,0,36.2-8.7,36.2-19.3C74.3,10.6,58.1,1.9,38.1,1.9z M31.4,23.3h-7.5
		c0.1,1.8,1.1,2.7,2.7,2.7c1.2,0,1.9-0.7,2.1-1.3h2.5c-0.6,2.2-2.5,3.3-4.7,3.3c-3.2,0-5.2-2.2-5.2-5.3c0-3,2.1-5.4,5.2-5.4
		C30,17.3,31.6,20.2,31.4,23.3z M26.4,19.2c-1.6,0-2.4,1-2.5,2.4h4.9C28.6,20.1,28,19.2,26.4,19.2z M63.9,23.3h-7.5
		c0.1,1.8,1.1,2.7,2.7,2.7c1.2,0,1.9-0.7,2.1-1.3h2.5C63.1,26.9,61.3,28,59,28c-3.2,0-5.2-2.2-5.2-5.3c0-3,2.1-5.4,5.2-5.4
		C62.5,17.3,64.1,20.2,63.9,23.3z M58.9,19.2c-1.6,0-2.4,1-2.5,2.4h4.9C61.1,20.1,60.5,19.2,58.9,19.2z M8.2,27.7H11v-6h6v6h2.8v-14
		H17v5.8h-6v-5.8H8.2V27.7z M33,27.7h2.6v-5.5c0-2.1,0.7-2.9,2.2-2.9c1.3,0,1.9,0.8,1.9,2.5v5.9h2.6v-6.2c0-2.5-0.7-4.2-3.7-4.2
		c-1.2,0-2.4,0.5-3.1,1.7h-0.1v-1.4H33L33,27.7L33,27.7z M44.6,27.7h2.6v-5.5l3.9,5.5h3.3L50,22l3.8-4.5h-3.1l-3.5,4.4v-8.3h-2.6
		L44.6,27.7L44.6,27.7z M65.5,27.7h2.6v-14h-2.6V27.7z">
  </path>
 </g>
</svg>